<svg width="21" height="20" viewBox="0 0 21 20" fill="none" xmlns="http://www.w3.org/2000/svg">
<path d="M6.30005 20C5.75005 20 5.27938 19.8043 4.88805 19.413C4.49605 19.021 4.30005 18.55 4.30005 18C4.30005 17.45 4.49605 16.979 4.88805 16.587C5.27938 16.1957 5.75005 16 6.30005 16C6.85005 16 7.32071 16.1957 7.71205 16.587C8.10405 16.979 8.30005 17.45 8.30005 18C8.30005 18.55 8.10405 19.021 7.71205 19.413C7.32071 19.8043 6.85005 20 6.30005 20ZM16.3 20C15.75 20 15.2794 19.8043 14.888 19.413C14.496 19.021 14.3 18.55 14.3 18C14.3 17.45 14.496 16.979 14.888 16.587C15.2794 16.1957 15.75 16 16.3 16C16.85 16 17.321 16.1957 17.713 16.587C18.1044 16.979 18.3 17.45 18.3 18C18.3 18.55 18.1044 19.021 17.713 19.413C17.321 19.8043 16.85 20 16.3 20ZM5.45005 4L7.85005 9H14.85L17.6 4H5.45005ZM6.30005 15C5.55005 15 4.98338 14.6707 4.60005 14.012C4.21672 13.354 4.20005 12.7 4.55005 12.05L5.90005 9.6L2.30005 2H1.27505C0.991716 2 0.758382 1.904 0.575049 1.712C0.391715 1.52067 0.300049 1.28333 0.300049 1C0.300049 0.716667 0.396049 0.479 0.588049 0.287C0.779382 0.0956666 1.01672 0 1.30005 0H2.92505C3.10838 0 3.28338 0.0500001 3.45005 0.15C3.61672 0.25 3.74172 0.391667 3.82505 0.575L4.50005 2H19.25C19.7001 2 20.0084 2.16667 20.175 2.5C20.3417 2.83333 20.3334 3.18333 20.15 3.55L16.6 9.95C16.4167 10.2833 16.175 10.5417 15.875 10.725C15.575 10.9083 15.2334 11 14.85 11H7.40005L6.30005 13H17.325C17.6084 13 17.8417 13.0957 18.025 13.287C18.2084 13.479 18.3 13.7167 18.3 14C18.3 14.2833 18.204 14.5207 18.012 14.712C17.8207 14.904 17.5834 15 17.3 15H6.30005Z" fill="#343434"/>
</svg>
