<svg viewBox="0 0 30 26"  xmlns="http://www.w3.org/2000/svg">
<path d="M30 10.768V11.6608C30 12.4005 29.4404 13.0001 28.75 13.0001H28.3333L26.9733 23.2002C26.7973 24.5198 25.7425 25.5 24.4984 25.5H5.50156C4.25745 25.5 3.20266 24.5198 3.02667 23.2002L1.66667 13.0001H1.25C0.559635 13.0001 0 12.4005 0 11.6608V10.768C0 10.0283 0.559635 9.42867 1.25 9.42867H4.75734L10.3188 1.23559C10.8602 0.438049 11.9025 0.261655 12.647 0.84173C13.3914 1.4218 13.556 2.53859 13.0146 3.33619L8.87901 9.42867H21.121L16.9854 3.33613C16.444 2.53859 16.6086 1.42175 17.3531 0.841674C18.0974 0.261599 19.1398 0.437938 19.6812 1.23553L25.2427 9.42867H28.75C29.4404 9.42867 30 10.0283 30 10.768ZM16.25 20.5893V14.3394C16.25 13.5997 15.6904 13.0001 15 13.0001C14.3096 13.0001 13.75 13.5997 13.75 14.3394V20.5893C13.75 21.329 14.3096 21.9286 15 21.9286C15.6904 21.9286 16.25 21.329 16.25 20.5893ZM22.0833 20.5893V14.3394C22.0833 13.5997 21.5237 13.0001 20.8333 13.0001C20.143 13.0001 19.5833 13.5997 19.5833 14.3394V20.5893C19.5833 21.329 20.143 21.9286 20.8333 21.9286C21.5237 21.9286 22.0833 21.329 22.0833 20.5893ZM10.4167 20.5893V14.3394C10.4167 13.5997 9.85703 13.0001 9.16667 13.0001C8.4763 13.0001 7.91667 13.5997 7.91667 14.3394V20.5893C7.91667 21.329 8.4763 21.9286 9.16667 21.9286C9.85703 21.9286 10.4167 21.329 10.4167 20.5893Z"/>
</svg>
