<svg  viewBox="0 0 86 80" xmlns="http://www.w3.org/2000/svg">
<g clip-path="url(#clip0_3_1365)">
<path d="M46.7176 5.45284C46.6845 5.27518 46.6618 5.09573 46.6498 4.91542C46.4736 2.38446 48.3841 0.189754 50.9217 0.0114477C53.4621 -0.165072 55.6622 1.7427 55.8395 4.27365C56.0169 6.80461 54.1056 8.99932 51.5681 9.17762C51.4075 9.18977 51.2485 9.19192 51.0929 9.18584C50.9901 9.21228 50.9285 9.22479 50.84 9.30269C50.5788 9.70861 51.5043 9.63286 50.8751 11.407C50.8751 11.407 50.8708 11.6017 50.8009 11.7965C50.7515 12.4775 50.4888 14.4957 50.4512 15.5706C50.5849 15.7264 50.6225 15.8021 50.6078 16.1798C50.5483 16.6904 50.4308 17.9418 50.2419 18.7436C50.0818 19.4308 49.8005 19.5619 49.5737 19.7302C49.2548 21.1538 49.1706 22.333 48.3526 24.0621C48.2784 25.3728 48.1859 25.7298 47.9104 26.3697C47.8796 28.2997 48.0132 28.587 46.7075 31.6428C46.3704 33.0721 46.6911 34.0609 47.0469 35.5459C47.4109 37.0721 48.4206 37.7099 48.5708 39.2729C48.9244 42.9537 48.8359 45.4596 48.044 48.3458L48.7352 49.978C49.593 50.3704 51.7214 51.4431 50.5411 53.1411C52.2034 54.0123 54.7141 54.9374 56.7851 56.704C57.6182 57.3958 58.4982 58.1501 59.2879 59.0356C60.7914 59.2693 60.6309 59.3883 61.7453 60.0711C65.022 62.0747 70.2767 66.0492 73.3228 68.8632C73.8473 69.1687 74.0612 69.3888 74.4848 69.6103C74.5511 69.7368 74.569 69.7661 74.5543 69.8004C74.4088 70.1678 74.4142 70.1785 74.2827 70.4711C74.4471 70.6523 74.7535 70.8217 74.9366 70.9803C75.1079 71.0336 75.1079 70.9518 75.4017 70.8799C75.784 71.2369 76.2577 71.5246 76.4275 71.5078C76.946 71.3766 76.8575 71.4835 77.2957 70.9946C77.4534 70.8328 77.7175 70.9968 77.7175 70.9968C77.8819 70.8042 78.2356 70.4204 78.7071 70.1431C79.0834 69.9219 79.8014 69.8973 79.8014 69.8973C80.0419 69.8994 79.9967 70.1453 79.9759 70.2253C79.7043 70.365 79.1289 70.5187 78.8057 70.7563C78.1019 71.482 77.5509 72.4611 77.5509 72.4611C78.9676 72.2682 79.838 72.6187 81.0186 72.4836C81.6625 72.4465 82.1376 72.4879 82.8138 71.9998C82.8138 71.9998 83.4638 71.5385 84.046 71.2937C84.6114 71.0479 85.1482 71.179 85.6459 71.5396C85.9974 71.9351 86.2092 71.9373 85.6746 72.4958C85.4814 72.7127 85.2016 72.9549 84.8461 73.3058C84.2209 73.9219 83.3792 74.743 82.5078 75.4226C81.6252 76.1098 80.6238 76.7269 79.9985 77.0099C78.4212 78.1401 78.7935 77.8446 77.5534 78.9648C77.3968 79.1046 76.9815 79.3543 76.7801 79.4876C76.291 79.8078 76.1384 79.5408 75.8195 78.9545C75.8195 78.9545 75.6737 78.7354 75.4329 78.2673C75.1699 77.7567 74.9724 77.1728 75.0523 77.1825C74.7585 77.1453 73.4356 75.5988 73.4324 75.2672C73.1526 75.2032 71.9594 74.0512 71.9167 73.8311L70.8597 72.986C69.6504 73.2365 69.3731 72.4876 66.179 70.2275C65.8146 70.221 65.2517 70.0248 64.4448 69.4281C63.0037 68.2768 59.5459 65.6722 58.9597 65.3746C58.3302 65.0548 57.5781 64.7535 57.1166 64.3737C56.4254 64.2469 56.0474 64.1747 55.7016 64.0786C55.3483 63.9821 55.0269 63.8574 54.1325 63.738C52.6767 63.5576 51.1668 62.9565 49.7292 62.239C49.0488 61.9174 48.4561 61.7534 47.8703 61.5022C46.556 60.9487 45.4291 60.4502 44.5559 60.2491C44.2226 60.2162 42.6389 59.7424 41.8083 59.2589C41.5202 59.111 41.3536 58.9695 41.1644 58.9262C40.7284 58.8262 40.4485 58.9981 40.2514 59.0642C39.1862 59.6177 38.1886 60.0958 37.267 60.5903C36.4092 61.0477 35.6195 61.5229 34.7825 62.0036C34.0275 62.4384 33.1554 62.8483 32.2589 63.2753C32.2589 63.2753 29.7023 64.5531 28.306 65.0498C27.0945 66.036 24.6182 67.7422 23.1068 68.5873C22.3583 68.9421 20.9043 69.8608 20.2335 70.0663C19.8508 70.3736 18.4874 71.3437 17.42 72.1438C16.5952 72.7591 15.9721 73.278 15.9721 73.278C15.493 73.7064 15.5256 73.9097 14.6148 73.5238C14.3618 73.7311 14.1665 73.86 14.0038 73.979C13.346 74.455 13.2901 74.3403 13.0497 74.3278C12.591 74.7237 12.5333 74.519 12.1324 74.9746C11.869 75.3812 12.1385 75.284 11.5831 75.4812C11.4659 75.5263 11.4104 75.6674 11.3201 75.7457C10.8736 76.1123 10.8718 77.1485 9.80226 77.2225C9.18309 77.6631 9.34147 78.1952 8.86849 78.1719C8.89752 78.629 8.03147 79.2961 7.87525 79.2939C6.5115 79.7631 6.41691 78.7633 4.77977 79.5094C4.56801 79.6062 4.25735 79.8732 3.84815 79.9503C3.1283 80.0858 2.25831 79.9439 1.72765 79.5341C0.892419 78.8919 0.123477 77.6531 0.123477 77.6531C-0.142034 77.0274 0.0123995 76.6318 0.84118 76.0405C1.18659 75.8214 1.25037 75.6574 1.83049 75.6177C2.11857 75.5091 2.0401 75.6753 2.55464 75.4913C2.85276 75.3844 2.85276 75.4605 3.45329 75.4094C3.59088 75.3169 3.78437 75.284 4.04343 75.2C4.51856 75.0439 4.9815 74.8699 4.9815 74.8699C4.9815 74.8699 5.10261 74.7487 5.55946 74.792C5.94608 74.634 6.34309 74.3996 6.54662 74.3278C6.49502 73.7171 6.56095 73.7457 6.84473 73.4999C7.19839 73.1958 7.26217 73.2454 7.52553 73.4338C7.63661 73.3698 7.69 73.348 7.67781 73.2551C7.63446 72.9371 7.36106 72.7874 7.44348 72.0863C7.32201 71.8054 7.14321 71.4588 7.18227 71.2494C7.23995 71.0236 7.29549 70.9146 7.43308 70.8428C7.57928 70.7652 7.62657 70.8699 7.70469 70.9575C7.84443 71.1197 7.95766 71.6 7.95766 71.6C8.0071 72.1417 8.17551 72.8431 8.71227 72.4472C9.02902 72.127 9.09065 71.2741 9.73633 71.4567L10.1971 71.8562C10.588 71.4895 10.6067 71.4895 10.841 71.342C10.841 71.342 10.4748 70.9728 10.7959 70.6855C11.0159 70.4904 11.281 70.3507 11.7522 69.8301C13.0457 68.4047 13.71 67.7748 15.1089 66.6259C17.8998 64.3369 21.0752 62.7314 23.0928 61.9332C23.7507 61.1002 24.3907 60.5467 25.8508 60.407C27.5865 57.4841 30.9102 54.8738 31.6734 54.4575C32.2944 53.3351 32.5638 53.4545 33.3761 53.229C34.0196 52.7145 34.1658 52.7145 34.4539 52.177C34.7338 51.0679 33.8082 48.1039 36.171 47.9541C36.673 47.247 36.5475 47.4167 37.1069 46.7481C36.7285 45.817 36.5723 45.038 36.4694 44.3669C36.4508 44.289 35.5317 43.643 35.7926 42.7997C35.402 42.3362 34.6718 41.2546 34.4435 40.7479C34.3389 40.75 34.2522 40.7107 34.1372 40.695C34.0178 40.6761 33.8695 40.6829 33.7032 40.6686C33.3353 41.6155 32.9343 41.6859 32.28 41.8949C31.1119 44.3776 30.7006 45.4285 27.3955 47.481C26.0833 48.9461 25.6638 50.5783 25.6698 50.5541C25.4437 51.0379 25.5236 51.715 25.643 52.0781C25.4703 52.6155 25.5154 52.6687 25.5154 52.6687C25.5874 52.8717 25.7748 53.1404 26.0049 53.1976C26.4019 53.3023 26.7989 53.2855 26.776 53.7264C26.7226 54.2781 25.9966 54.1877 25.653 54.1263C24.3305 53.9169 24.7483 53.0575 23.9026 53.3444C23.2548 53.7671 23.0122 55.0142 21.9548 54.8523C21.8151 54.7602 21.8581 54.4875 21.9527 54.2906C22.101 53.983 22.364 53.7286 22.2078 53.6131C21.5183 53.8333 20.83 54.0569 20.1428 54.2842C19.495 54.4604 18.7852 54.1384 19.423 53.7135C19.7193 53.5988 20.1428 53.4548 20.6653 53.1211C20.6653 53.1211 20.9344 52.7559 20.4184 52.9385C19.8548 53.1393 19.0238 53.2644 18.4276 53.199C18.4276 53.199 17.1914 53.0371 17.033 52.9403C16.8725 52.8435 16.7267 52.4625 17.1133 52.4647C17.6028 52.469 18.8286 52.325 19.7788 52.0727C20.2374 51.8944 21.1096 51.3798 21.599 51.1376C21.599 51.1376 22.1297 50.3665 22.4217 50.2146C22.909 49.655 23.3204 49.3245 23.7521 48.752C24.1739 47.8841 24.6099 46.5105 26.0063 44.3834C26.652 43.4028 27.4542 42.2608 28.464 41.2396C28.464 41.2396 28.7252 39.6052 30.0395 38.4421C30.3297 37.761 30.7697 36.9592 31.2036 36.2166C31.3724 35.9315 31.5326 35.6835 31.6931 35.4126C32.1005 34.7748 32.5283 33.5874 34.116 33.4005C34.116 33.4005 34.7947 32.9003 35.0559 32.5447C35.4633 32.1981 35.3705 31.6589 35.7016 31.2791C35.1956 30.787 33.9021 29.8619 33.7763 28.5759C33.6427 27.212 34.13 26.09 34.957 25.2595C35.8743 24.3448 36.841 23.8874 38.0152 23.9571C39.4814 24.1743 39.7591 24.6585 40.226 25.1384C40.6742 25.5936 40.8409 25.3006 41.0301 25.8337C42.2601 26.16 42.1921 26.0163 42.1817 26.919C42.3709 27.173 42.6876 27.4092 42.6833 27.9363C43.0968 27.0808 43.1789 26.9232 44.2835 25.9817C44.5448 25.2166 44.7221 24.4641 44.9514 23.6991C45.1668 22.9916 45.4344 22.2633 45.6419 21.7155C45.4219 20.169 45.8737 19.9128 46.4768 18.5571C46.37 18.3706 46.3929 18.3174 46.4381 18.0115C46.6724 17.1153 47.0386 15.9297 47.2565 15.1564C47.2565 15.1564 47.3285 14.8488 47.6474 14.8263C47.9233 13.8479 48.3368 12.0266 48.4063 11.6553C48.6901 10.6319 48.507 10.3036 48.2891 9.72719C48.2193 9.53852 48.2519 9.26981 48.1311 9.06042C47.7875 8.46368 47.4177 7.68828 47.1669 7.13442C47.0042 6.78174 46.747 5.45248 46.747 5.45248C46.5262 4.77391 46.7176 5.45284 46.7176 5.45284Z" />
</g>
</svg>
