<svg viewBox="0 0 120 53" xmlns="http://www.w3.org/2000/svg">
<path fill-rule="evenodd" clip-rule="evenodd" d="M15.3648 2.32852C7.61157 13.4782 0.177657 27.3048 0.103114 37.6397C0.0740811 41.5283 1.08787 44.9229 3.51955 47.4942C7.01915 51.1973 10.875 52.5031 14.712 52.5108C20.3192 52.5204 25.8872 49.7502 30.2468 47.6143C37.5889 44.0188 118.749 0.860342 118.749 0.860342C119.532 0.379918 119.386 -0.218687 118.405 0.0801367C118.01 0.201204 30.0499 29.3908 30.0499 29.3908C28.3837 29.9678 26.6621 30.2697 24.9307 30.2883C18.1708 30.3373 12.1556 25.7425 12.2042 16.06C12.223 12.2714 13.1701 7.70255 15.3648 2.32852Z" />
</svg>
