<svg viewBox="0 0 18 19" xmlns="http://www.w3.org/2000/svg">
<path d="M9 18.5C6.98333 18.5 5.175 17.904 3.575 16.712C1.975 15.5207 0.9 13.9667 0.35 12.05C0.266667 11.75 0.296 11.4667 0.438 11.2C0.579333 10.9333 0.8 10.7667 1.1 10.7C1.38333 10.6333 1.63767 10.6957 1.863 10.887C2.08767 11.079 2.24167 11.3167 2.325 11.6C2.75833 13.0667 3.596 14.25 4.838 15.15C6.07933 16.05 7.46667 16.5 9 16.5C10.95 16.5 12.604 15.8207 13.962 14.462C15.3207 13.104 16 11.45 16 9.5C16 7.55 15.3207 5.89567 13.962 4.537C12.604 3.179 10.95 2.5 9 2.5C7.85 2.5 6.775 2.76667 5.775 3.3C4.775 3.83333 3.93333 4.56667 3.25 5.5H5C5.28333 5.5 5.521 5.59567 5.713 5.787C5.90433 5.979 6 6.21667 6 6.5C6 6.78333 5.90433 7.02067 5.713 7.212C5.521 7.404 5.28333 7.5 5 7.5H1C0.716667 7.5 0.479333 7.404 0.288 7.212C0.0960001 7.02067 0 6.78333 0 6.5V2.5C0 2.21667 0.0960001 1.979 0.288 1.787C0.479333 1.59567 0.716667 1.5 1 1.5C1.28333 1.5 1.521 1.59567 1.713 1.787C1.90433 1.979 2 2.21667 2 2.5V3.85C2.85 2.78333 3.88767 1.95833 5.113 1.375C6.33767 0.791667 7.63333 0.5 9 0.5C10.25 0.5 11.421 0.737333 12.513 1.212C13.6043 1.68733 14.5543 2.329 15.363 3.137C16.171 3.94567 16.8127 4.89567 17.288 5.987C17.7627 7.079 18 8.25 18 9.5C18 10.75 17.7627 11.9207 17.288 13.012C16.8127 14.104 16.171 15.054 15.363 15.862C14.5543 16.6707 13.6043 17.3127 12.513 17.788C11.421 18.2627 10.25 18.5 9 18.5Z"/>
</svg>
