<svg width="18" height="18" viewBox="0 0 18 18" fill="none" xmlns="http://www.w3.org/2000/svg">
<path d="M12.8001 11.255H12.0101L11.7301 10.985C12.7439 9.80902 13.3012 8.30769 13.3001 6.755C13.3001 5.46942 12.9188 4.21271 12.2046 3.14379C11.4904 2.07487 10.4752 1.24175 9.28749 0.749783C8.09977 0.257814 6.79284 0.129092 5.53196 0.379896C4.27109 0.6307 3.1129 1.24976 2.20386 2.15881C1.29482 3.06785 0.675751 4.22604 0.424947 5.48691C0.174143 6.74779 0.302865 8.05472 0.794835 9.24244C1.2868 10.4302 2.11993 11.4453 3.18885 12.1596C4.25776 12.8738 5.51447 13.255 6.80005 13.255C8.41005 13.255 9.89005 12.665 11.0301 11.685L11.3001 11.965V12.755L16.3001 17.745L17.7901 16.255L12.8001 11.255ZM6.80005 11.255C4.31005 11.255 2.30005 9.245 2.30005 6.755C2.30005 4.265 4.31005 2.255 6.80005 2.255C9.29005 2.255 11.3001 4.265 11.3001 6.755C11.3001 9.245 9.29005 11.255 6.80005 11.255Z" fill="#343434"/>
</svg>
