<svg width="24" height="23" viewBox="0 0 24 23" fill="none" xmlns="http://www.w3.org/2000/svg">
<path d="M8.04882 7.01442L8.30887 6.9765L8.42512 6.74081L11.2592 0.994473C11.5853 0.333992 12.5272 0.336255 12.8541 0.994825C12.8541 0.994952 12.8542 0.995079 12.8542 0.995207L15.688 6.74081L15.8042 6.9765L16.0643 7.01442L22.4054 7.9389L22.4058 7.93895C23.1323 8.04432 23.4248 8.94173 22.897 9.45568L22.8968 9.45582L18.3092 13.9263L18.1208 14.1099L18.1653 14.3691L19.2503 20.6838C19.3746 21.4102 18.6082 21.9595 17.962 21.6196L17.9619 21.6196L12.2892 18.6378L12.0566 18.5155L11.8239 18.6378L6.15117 21.6196L6.1496 21.6204C5.50685 21.9612 4.73795 21.4133 4.86276 20.6838L5.94777 14.3691L5.99231 14.1099L5.80394 13.9263L1.21627 9.45582L1.21612 9.45568C0.688281 8.94173 0.980812 8.04432 1.70731 7.93895L1.70768 7.9389L8.04882 7.01442Z" stroke="#2E2E2E"/>
</svg>
