<svg width="185" height="74" viewBox="0 0 185 74" fill="none" xmlns="http://www.w3.org/2000/svg">
<path d="M57.7872 43.7794C63.2611 51.2101 70.1227 51.593 70.1227 51.593H82.0729L87.4697 43.7794H57.7872Z" fill="white"/>
<path d="M42.8304 32.0594C48.3043 39.49 55.166 39.873 55.166 39.873H90.1683L95.5651 32.0594H42.8304Z" fill="white"/>
<path d="M27.9507 20.3393C33.4246 27.7699 40.2863 28.1529 40.2863 28.1529H98.2638L103.661 20.3393H27.9507Z" fill="white"/>
<path d="M0.735352 0.806152C11.7604 15.6667 25.4065 16.4327 25.4065 16.4327H111.137L82.6882 57.5675C76.983 65.7641 90.9378 73.1941 90.9378 73.1941L130.257 16.4327C130.257 16.4327 143.904 15.6667 154.929 0.806152H0.735352Z" fill="white"/>
<path d="M185 0.806152H165.879C154.854 15.6667 141.208 16.4327 141.208 16.4327H155.085L126.637 57.5675C120.932 65.7641 134.886 73.1941 134.886 73.1941L185 0.806152Z" fill="white"/>
</svg>
