<svg width="17" height="20" viewBox="0 0 17 20" xmlns="http://www.w3.org/2000/svg">
<path d="M8.10001 10C8.65001 10 9.12101 9.804 9.51301 9.412C9.90434 9.02067 10.1 8.55 10.1 8C10.1 7.45 9.90434 6.979 9.51301 6.587C9.12101 6.19567 8.65001 6 8.10001 6C7.55001 6 7.07934 6.19567 6.68801 6.587C6.29601 6.979 6.10001 7.45 6.10001 8C6.10001 8.55 6.29601 9.02067 6.68801 9.412C7.07934 9.804 7.55001 10 8.10001 10ZM8.10001 20C5.41667 17.7167 3.41267 15.5957 2.08801 13.637C0.762673 11.679 0.100006 9.86667 0.100006 8.2C0.100006 5.7 0.90434 3.70833 2.51301 2.225C4.12101 0.741667 5.98334 0 8.10001 0C10.2167 0 12.079 0.741667 13.687 2.225C15.2957 3.70833 16.1 5.7 16.1 8.2C16.1 9.86667 15.4377 11.679 14.113 13.637C12.7877 15.5957 10.7833 17.7167 8.10001 20Z"/>
</svg>
