<svg width="80" height="190" viewBox="0 0 80 190" fill="none" xmlns="http://www.w3.org/2000/svg">
<path fill-rule="evenodd" clip-rule="evenodd" d="M68.7344 189.67C69.7567 187.728 71.5722 181.444 68.1672 174.817C69.1895 171.161 66.4637 170.36 65.3294 162.25C66.4647 159.85 67.259 156.993 67.1459 153.794C66.9189 150.938 64.8753 149.567 63.7399 147.397C61.9234 140.084 60.9021 132.316 58.1763 125.461C57.269 122.146 54.9984 119.29 53.4079 116.206C51.8184 107.979 51.0242 99.1826 48.5265 91.4135C48.9972 91.0532 49.4172 90.6302 49.7748 90.1562C48.0713 83.1874 45.5736 73.0185 41.9405 69.9332C42.8478 66.5056 44.2112 62.5073 44.6653 59.422C46.2538 57.2518 48.0703 54.852 51.5904 53.2525C53.4069 58.2795 54.2021 64.5639 55.2234 69.5899C57.4941 74.617 60.673 79.0723 61.5813 83.6434C55.7916 85.9284 51.8174 91.2988 51.8174 97.5811C51.8174 105.693 58.2893 112.205 66.2356 112.205C72.1404 112.205 77.2489 108.434 79.5195 103.294V176.186C79.5205 182.699 74.9792 188.184 68.7344 189.67Z" fill="white"/>
<path fill-rule="evenodd" clip-rule="evenodd" d="M61.9395 189.886C59.6689 184.402 61.0313 179.832 61.4854 173.548C60.9182 170.692 60.4631 167.835 60.009 165.094C56.831 160.181 55.6957 155.725 54.9005 150.47C48.8837 145.101 41.8436 140.416 37.0763 134.589C28.5608 126.477 22.3169 118.136 18.0027 108.768C16.5272 108.655 15.0518 108.539 13.4613 108.539C10.7365 101.113 4.49271 92.0868 5.05988 86.2605C5.28694 81.1187 6.87641 76.4349 8.80597 71.1793C7.10246 70.836 5.51401 71.4078 3.69748 70.379C0.859652 68.551 1.31378 65.352 1.19974 62.4952C2.44811 56.7826 5.51401 51.984 7.55761 46.8432C9.6012 42.3869 11.5318 37.9316 13.4613 33.59C16.1861 30.5047 17.8896 28.3344 21.2946 26.8486C24.2465 26.5054 27.1994 26.9624 30.3773 26.2779C31.7397 25.8209 33.4432 25.4776 34.0114 24.5636C35.3738 22.6208 35.0327 20.5643 35.6008 18.1655C33.7843 17.1378 34.0114 11.8822 36.055 10.0542C36.055 6.39811 37.5304 1.48478 40.5963 0.228525L14.2566 2.15685e-05C12.4516 -0.00318971 10.6638 0.352219 8.99564 1.04586C7.32748 1.73951 5.81181 2.75774 4.53556 4.04216C3.25931 5.32658 2.2476 6.85191 1.55844 8.53068C0.869276 10.2094 0.516231 12.0086 0.519555 13.825V176.175C0.516231 177.991 0.869276 179.791 1.55844 181.469C2.2476 183.148 3.25931 184.673 4.53556 185.958C5.81181 187.242 7.32748 188.26 8.99564 188.954C10.6638 189.648 12.4516 190.003 14.2566 190L61.9395 189.886ZM9.2591 156.069H15.2769L19.7042 170.349V156.069H25.1538V179.947H19.023L14.4816 165.666V179.947H9.2591V156.069ZM26.062 156.069H33.1011C42.2968 156.069 39.9131 167.263 36.5071 167.492C41.6156 166.922 42.2968 179.947 34.0093 179.947H26.062V156.069ZM31.5116 159.952V165.322H32.875C35.1457 165.322 35.1457 159.952 32.875 159.952H31.5116ZM31.5116 169.436V176.062H32.875C35.4858 176.062 35.1457 169.436 32.875 169.436H31.5116ZM44.4544 156.069H51.7205L55.9208 179.947H50.3581L49.903 175.72H46.0439L45.3617 179.947H39.9131L44.4544 156.069ZM46.612 171.492H49.4499L47.9734 159.609L46.612 171.492Z" fill="white"/>
<path fill-rule="evenodd" clip-rule="evenodd" d="M49.9696 0.596161C53.8297 4.25221 56.2144 9.50779 52.5814 15.9059C54.852 17.3906 50.8779 20.0189 49.9696 22.0755C48.8353 25.2745 44.9751 27.1025 45.4293 28.2451C50.4237 31.3304 54.3979 34.4146 59.3934 38.4129C62.0051 41.7267 63.0264 54.9789 64.5019 65.0331C66.6595 71.3174 69.7244 76.6867 70.8597 83.7703C74.8339 85.2551 77.8988 88.3404 79.4883 91.9964V13.8483C79.4916 12.032 79.1385 10.2329 78.4493 8.55419C77.7602 6.87548 76.7484 5.35021 75.4722 4.06587C74.1959 2.78154 72.6802 1.7634 71.0121 1.06987C69.3439 0.376333 67.5561 0.02105 65.7512 0.0243951L49.9696 0.596161Z" fill="white"/>
</svg>
