<svg width="133" height="174" viewBox="0 0 133 174" fill="none" xmlns="http://www.w3.org/2000/svg">
<path fill-rule="evenodd" clip-rule="evenodd" d="M0.12793 131.399L0.452258 16.1757C23.1854 35.9106 57.8848 15.972 66.2901 0C82.6547 29.0444 123.234 27.7935 131.804 15.8522L132.128 134.906C131.966 161.069 81.7241 148.577 66.1369 174C50.3198 146.337 1.1201 162.094 0.12793 131.399Z" fill="white"/>
<path fill-rule="evenodd" clip-rule="evenodd" d="M5.90673 128.467L6.20264 70.7346L126.053 70.7036L126.349 131.551C126.43 155.462 80.3585 143.576 66.1361 165.935C51.7039 141.605 6.12774 156.167 5.90673 128.467Z" fill="#484848"/>
<path fill-rule="evenodd" clip-rule="evenodd" d="M50.6579 64.181C52.1995 56.6396 54.3659 49.9292 57.1073 43.9836L54.5575 42.6371L55.4574 40.9914C61.6985 42.4607 61.2305 43.3158 63.1066 44.4324L61.9068 46.527L58.9071 45.1805C54.9384 51.4044 53.6926 58.0164 52.4577 64.6299C68.81 63.7804 91.3725 50.9458 80.6549 22.5893C78.2285 23.6833 75.9331 25.0383 73.9056 26.928L76.0053 28.873L74.5055 30.2194C72.989 28.5904 71.2992 27.1341 68.2061 27.0776L70.1559 25.7311L72.7057 26.0304C73.9397 24.5343 76.0717 23.0381 79.305 21.542C55.3021 21.3749 44.1639 38.3659 50.6579 64.181Z" fill="#484848"/>
<path d="M20.0014 45.0941L14.5579 41.2423L9.14888 45.1421L11.1392 38.7877L5.74953 34.8613L12.4231 34.7859L14.5012 28.4594L16.6353 34.7673L23.3093 34.7837L17.9547 38.7576L20.0014 45.0941Z" fill="#484848"/>
<path d="M42.974 45.0941L37.5305 41.2423L32.1215 45.1421L34.1118 38.7877L28.7221 34.8613L35.3957 34.7859L37.4737 28.4594L39.6079 34.7673L46.2819 34.7837L40.9273 38.7576L42.974 45.0941Z" fill="#484848"/>
<path d="M20.0014 65.3359L14.5579 61.4841L9.14888 65.3839L11.1392 59.0295L5.74953 55.1031L12.4231 55.0276L14.5012 48.7012L16.6353 55.009L23.3093 55.0255L17.9547 58.9993L20.0014 65.3359Z" fill="#484848"/>
<path d="M42.974 65.3359L37.5305 61.4841L32.1215 65.3839L34.1118 59.0295L28.7221 55.1031L35.3957 55.0276L37.4737 48.7012L39.6079 55.009L46.2819 55.0255L40.9273 58.9993L42.974 65.3359Z" fill="#484848"/>
<path d="M100.405 45.0941L94.9619 41.2423L89.5528 45.1421L91.5432 38.7877L86.1535 34.8613L92.8271 34.7859L94.9051 28.4594L97.0393 34.7673L103.713 34.7837L98.3587 38.7576L100.405 45.0941Z" fill="#484848"/>
<path d="M123.378 45.0941L117.934 41.2423L112.525 45.1421L114.516 38.7877L109.126 34.8613L115.8 34.7859L117.878 28.4594L120.012 34.7673L126.686 34.7837L121.331 38.7576L123.378 45.0941Z" fill="#484848"/>
<path d="M100.405 65.3359L94.9619 61.4841L89.5528 65.3839L91.5432 59.0295L86.1535 55.1031L92.8271 55.0276L94.9051 48.7012L97.0393 55.009L103.713 55.0255L98.3587 58.9993L100.405 65.3359Z" fill="#484848"/>
<path d="M123.378 65.3359L117.934 61.4841L112.525 65.3839L114.516 59.0295L109.126 55.1031L115.8 55.0276L117.878 48.7012L120.012 55.009L126.686 55.0255L121.331 58.9993L123.378 65.3359Z" fill="#484848"/>
<path fill-rule="evenodd" clip-rule="evenodd" d="M57.2572 38.1488C60.9152 39.2941 62.7646 40.8003 64.4565 42.3379L65.9563 40.2434C64.1296 38.1757 61.1578 37.2501 58.1571 36.3535L57.2572 38.1488Z" fill="white"/>
<path fill-rule="evenodd" clip-rule="evenodd" d="M60.2569 34.4085C63.9149 35.5539 65.7643 37.06 67.4562 38.5976L68.956 36.5031C67.1292 34.4355 64.1575 33.5098 61.1568 32.6132L60.2569 34.4085Z" fill="white"/>
<path fill-rule="evenodd" clip-rule="evenodd" d="M64.3065 30.0698C67.9645 31.2152 69.8139 32.7213 71.5058 34.2589L73.0056 32.1644C71.1788 30.0968 68.2071 29.1712 65.2064 28.2745L64.3065 30.0698Z" fill="white"/>
<path fill-rule="evenodd" clip-rule="evenodd" d="M13.1616 76.2995L13.3116 84.6777L17.8112 86.6226L18.1112 127.017L13.1616 128.962V135.246L31.0099 139.734L30.8599 132.104L27.4102 128.514L27.2602 107.119L39.259 141.53L48.4081 144.372L48.8581 86.6226L51.8578 84.2288V76.2995H34.9095V84.2288L38.8091 86.473L38.9591 112.954L26.9603 76.1499L13.1616 76.2995Z" fill="white"/>
<path fill-rule="evenodd" clip-rule="evenodd" d="M55.3074 139.585L55.4574 146.018L72.8556 152.451V144.971L69.106 140.931V112.056L74.6555 112.206L77.3552 115.647L81.8547 115.497L82.0047 99.6387L76.9052 99.4891L74.8055 102.93L69.256 103.08V85.8745L76.1553 86.1738L78.7051 92.0086L85.4544 91.859L85.6044 76.5987H54.8575L55.0075 84.3784L58.907 86.9218L59.357 137.64L55.3074 139.585Z" fill="white"/>
<path fill-rule="evenodd" clip-rule="evenodd" d="M88.604 76.4491V84.5281L91.7538 86.3234L92.2037 132.254L88.604 136.443L88.904 143.325L119.051 134.797L118.751 115.797L111.402 115.647L110.352 127.017L103.003 129.411L103.153 86.7722L106.902 83.78L106.752 76.2995L88.604 76.4491Z" fill="white"/>
<path fill-rule="evenodd" clip-rule="evenodd" d="M0.12793 131.399L0.452258 16.1757C23.1854 35.9106 57.8848 15.972 66.2901 0C82.6547 29.0444 123.234 27.7935 131.804 15.8522L132.128 134.906C131.966 161.069 81.7241 148.577 66.1369 174C50.3198 146.337 1.1201 162.094 0.12793 131.399Z" stroke="#484848"/>
<path fill-rule="evenodd" clip-rule="evenodd" d="M5.90673 128.467L6.20264 70.7346L126.053 70.7036L126.349 131.551C126.43 155.462 80.3585 143.576 66.1361 165.935C51.7039 141.605 6.12774 156.167 5.90673 128.467Z" stroke="#484848"/>
<path fill-rule="evenodd" clip-rule="evenodd" d="M50.6579 64.181C52.1995 56.6396 54.3659 49.9292 57.1073 43.9836L54.5575 42.6371L55.4574 40.9914C61.6985 42.4607 61.2305 43.3158 63.1066 44.4324L61.9068 46.527L58.9071 45.1805C54.9384 51.4044 53.6926 58.0164 52.4577 64.6299C68.81 63.7804 91.3725 50.9458 80.6549 22.5893C78.2285 23.6833 75.9331 25.0383 73.9056 26.928L76.0053 28.873L74.5055 30.2194C72.989 28.5904 71.2992 27.1341 68.2061 27.0776L70.1559 25.7311L72.7057 26.0304C73.9397 24.5343 76.0717 23.0381 79.305 21.542C55.3021 21.3749 44.1639 38.3659 50.6579 64.181Z" stroke="#484848"/>
<path d="M20.0014 45.0941L14.5579 41.2423L9.14888 45.1421L11.1392 38.7877L5.74953 34.8613L12.4231 34.7859L14.5012 28.4594L16.6353 34.7673L23.3093 34.7837L17.9547 38.7576L20.0014 45.0941Z" stroke="#484848"/>
<path d="M42.974 45.0941L37.5305 41.2423L32.1215 45.1421L34.1118 38.7877L28.7221 34.8613L35.3957 34.7859L37.4737 28.4594L39.6079 34.7673L46.2819 34.7837L40.9273 38.7576L42.974 45.0941Z" stroke="#484848"/>
<path d="M20.0014 65.3359L14.5579 61.4841L9.14888 65.3839L11.1392 59.0295L5.74953 55.1031L12.4231 55.0276L14.5012 48.7012L16.6353 55.009L23.3093 55.0255L17.9547 58.9993L20.0014 65.3359Z" stroke="#484848"/>
<path d="M42.974 65.3359L37.5305 61.4841L32.1215 65.3839L34.1118 59.0295L28.7221 55.1031L35.3957 55.0276L37.4737 48.7012L39.6079 55.009L46.2819 55.0255L40.9273 58.9993L42.974 65.3359Z" stroke="#484848"/>
<path d="M100.405 45.0941L94.9619 41.2423L89.5528 45.1421L91.5432 38.7877L86.1535 34.8613L92.8271 34.7859L94.9051 28.4594L97.0393 34.7673L103.713 34.7837L98.3587 38.7576L100.405 45.0941Z" stroke="#484848"/>
<path d="M123.378 45.0941L117.934 41.2423L112.525 45.1421L114.516 38.7877L109.126 34.8613L115.8 34.7859L117.878 28.4594L120.012 34.7673L126.686 34.7837L121.331 38.7576L123.378 45.0941Z" stroke="#484848"/>
<path d="M100.405 65.3359L94.9619 61.4841L89.5528 65.3839L91.5432 59.0295L86.1535 55.1031L92.8271 55.0276L94.9051 48.7012L97.0393 55.009L103.713 55.0255L98.3587 58.9993L100.405 65.3359Z" stroke="#484848"/>
<path d="M123.378 65.3359L117.934 61.4841L112.525 65.3839L114.516 59.0295L109.126 55.1031L115.8 55.0276L117.878 48.7012L120.012 55.009L126.686 55.0255L121.331 58.9993L123.378 65.3359Z" stroke="#484848"/>
<path fill-rule="evenodd" clip-rule="evenodd" d="M57.2572 38.1488C60.9152 39.2941 62.7646 40.8003 64.4565 42.3379L65.9563 40.2434C64.1296 38.1757 61.1578 37.2501 58.1571 36.3535L57.2572 38.1488Z" stroke="#484848"/>
<path fill-rule="evenodd" clip-rule="evenodd" d="M60.2569 34.4085C63.9149 35.5539 65.7643 37.06 67.4562 38.5976L68.956 36.5031C67.1292 34.4355 64.1575 33.5098 61.1568 32.6132L60.2569 34.4085Z" stroke="#484848"/>
<path fill-rule="evenodd" clip-rule="evenodd" d="M64.3065 30.0698C67.9645 31.2152 69.8139 32.7213 71.5058 34.2589L73.0056 32.1644C71.1788 30.0968 68.2071 29.1712 65.2064 28.2745L64.3065 30.0698Z" stroke="#484848"/>
<path fill-rule="evenodd" clip-rule="evenodd" d="M13.1616 76.2995L13.3116 84.6777L17.8112 86.6226L18.1112 127.017L13.1616 128.962V135.246L31.0099 139.734L30.8599 132.104L27.4102 128.514L27.2602 107.119L39.259 141.53L48.4081 144.372L48.8581 86.6226L51.8578 84.2288V76.2995H34.9095V84.2288L38.8091 86.473L38.9591 112.954L26.9603 76.1499L13.1616 76.2995Z" stroke="#484848"/>
<path fill-rule="evenodd" clip-rule="evenodd" d="M55.3074 139.585L55.4574 146.018L72.8556 152.451V144.971L69.106 140.931V112.056L74.6555 112.206L77.3552 115.647L81.8547 115.497L82.0047 99.6387L76.9052 99.4891L74.8055 102.93L69.256 103.08V85.8745L76.1553 86.1738L78.7051 92.0086L85.4544 91.859L85.6044 76.5987H54.8575L55.0075 84.3784L58.907 86.9218L59.357 137.64L55.3074 139.585Z" stroke="#484848"/>
<path fill-rule="evenodd" clip-rule="evenodd" d="M88.604 76.4491V84.5281L91.7538 86.3234L92.2037 132.254L88.604 136.443L88.904 143.325L119.051 134.797L118.751 115.797L111.402 115.647L110.352 127.017L103.003 129.411L103.153 86.7722L106.902 83.78L106.752 76.2995L88.604 76.4491Z" stroke="#484848"/>
</svg>
