<svg viewBox="0 0 24 23" xmlns="http://www.w3.org/2000/svg">
<path d="M7.604 7.01442L7.86405 6.9765L7.98029 6.74081L10.8144 0.994473C11.1405 0.333992 12.0824 0.336255 12.4092 0.994825C12.4093 0.994952 12.4094 0.995079 12.4094 0.995207L15.2432 6.74081L15.3594 6.9765L15.6195 7.01442L21.9606 7.9389L21.961 7.93895C22.6875 8.04432 22.98 8.94173 22.4522 9.45568L22.452 9.45582L17.8643 13.9263L17.676 14.1099L17.7205 14.3691L18.8055 20.6838C18.9298 21.4102 18.1634 21.9595 17.5172 21.6196L17.5171 21.6196L11.8444 18.6378L11.6117 18.5155L11.3791 18.6378L5.70635 21.6196L5.70478 21.6204C5.06202 21.9612 4.29313 21.4133 4.41793 20.6838L5.50294 14.3691L5.54748 14.1099L5.35912 13.9263L0.771443 9.45582L0.771301 9.45568C0.243457 8.94173 0.535987 8.04432 1.26249 7.93895L1.26285 7.9389L7.604 7.01442Z" />
</svg>
