<svg viewBox="0 0 20 20"  xmlns="http://www.w3.org/2000/svg">
<path d="M12.2 14.975C12.0667 14.975 11.9377 14.95 11.813 14.9C11.6877 14.85 11.5833 14.7833 11.5 14.7L6.9 10.1C6.71667 9.91667 6.625 9.68333 6.625 9.4C6.625 9.11667 6.71667 8.88333 6.9 8.7C7.08333 8.51667 7.31667 8.425 7.6 8.425C7.88333 8.425 8.11667 8.51667 8.3 8.7L12.2 12.6L16.1 8.7C16.2833 8.51667 16.5167 8.425 16.8 8.425C17.0833 8.425 17.3167 8.51667 17.5 8.7C17.6833 8.88333 17.775 9.11667 17.775 9.4C17.775 9.68333 17.6833 9.91667 17.5 10.1L12.9 14.7C12.8 14.8 12.6917 14.8707 12.575 14.912C12.4583 14.954 12.3333 14.975 12.2 14.975Z" />
</svg>
