<svg width="147" height="148" viewBox="0 0 147 148" fill="none" xmlns="http://www.w3.org/2000/svg">
<path d="M13.5685 5.10295C23.5834 9.50011 40.0297 8.97871 51.0579 0.659274C66.4833 11.9561 81.3254 10.7973 95.4771 0.659274C104.909 7.48181 119.436 10.3903 133.066 5.24848L139.175 13.7364C123.243 35.0329 129.137 55.3851 145.575 73.2971L138.676 80.2963C140.241 126.227 104.67 137.186 84.2416 138.33L73.2593 147.317L62.3619 138.468C25.8933 135.322 6.63815 116.082 7.83524 80.4194L0.736965 73.2517C14.6042 58.2558 25.0185 37.7652 7.20606 13.737L13.5685 5.10295Z" fill="#484848"/>
<path d="M73.2599 148L62.1551 138.975C43.7977 137.363 29.8151 131.654 20.5907 121.999C11.2202 112.184 6.74594 98.2702 7.29086 80.6268L0 73.2593L0.34523 72.8911C19.0402 52.6692 21.1427 33.4293 6.78423 14.0516L6.5539 13.737L13.3994 4.45079L13.7829 4.61984C23.3301 8.8102 39.5302 8.69476 50.7428 0.237996L51.0574 0L51.372 0.230336C65.7381 10.7596 80.473 10.7596 95.1697 0.230336L95.4766 0.00765958L95.7835 0.230336C106.006 7.62077 120.572 9.39343 132.881 4.7506L133.257 4.60452L139.834 13.737L139.604 14.0439C125.398 33.0305 127.54 52.8453 145.966 72.9294L146.303 73.2976L139.204 80.4884C139.841 100.779 133.387 116.259 120.019 126.512C107.456 136.143 92.4062 138.369 84.4325 138.829L73.2599 148ZM1.46572 73.2363L8.36485 80.2126L8.35719 80.4429C7.19074 115.399 25.3714 134.746 62.4002 137.946L62.5616 137.962L73.2522 146.642L84.0348 137.824L84.2038 137.816C97.2886 137.087 139.859 130.786 138.14 80.3275L138.132 80.0972L144.84 73.2976C126.429 53.0144 124.303 32.984 138.516 13.7446L132.875 5.88587C120.45 10.4291 105.861 8.64114 95.4782 1.31198C80.5825 11.8412 65.6402 11.8412 51.0667 1.31964C39.6932 9.68449 23.5309 9.86121 13.7463 5.76331L7.86643 13.7446C22.0258 33.0917 19.8767 53.1063 1.46572 73.2363Z" fill="#484848"/>
<path d="M14.3973 79.491H131.738C134.824 111.961 114.194 129.497 82.8218 131.224L62.8915 131.278C32.8773 129.113 10.5139 113.274 14.3973 79.491Z" fill="white"/>
<path d="M81.6012 79.8822H64.9787V131.768H81.6012V79.8822Z" fill="#484848"/>
<path d="M48.5225 79.8822H31.9V126.251H48.5225V79.8822Z" fill="#484848"/>
<path d="M48.5225 123.88H37.694V128.653H48.5225V123.88Z" fill="#484848"/>
<path d="M114.491 79.8822H97.869V126.251H114.491V79.8822Z" fill="#484848"/>
<path d="M108.698 123.88H97.869V128.653H108.698V123.88Z" fill="#484848"/>
<path d="M72.7456 15.8319V61.9165L16.7302 62.323L22.5012 40.1446L15.3105 13.6062L50.7586 9.04765L72.7456 15.8319Z" fill="white"/>
<path d="M73.5591 15.8319V61.9165L129.574 62.323L123.803 40.1446L130.994 13.6068L95.5455 9.04819L73.5591 15.8319Z" fill="white"/>
<path d="M56.4448 10.3602H40.3826V61.6326H56.4448V10.3602Z" fill="#484848"/>
<path d="M72.7532 29.4846H22.7775V45.5468H72.7532V29.4846Z" fill="#484848"/>
<path d="M84.5232 13.9979H78.5832V61.3027H84.5232V13.9979Z" fill="#484848"/>
<path d="M95.8047 10.6058H89.8647V61.4104H95.8047V10.6058Z" fill="#484848"/>
<path d="M107.148 13.4683H101.208V61.5177H107.148V13.4683Z" fill="#484848"/>
<path d="M118.39 15.2333H112.45V61.4794H118.39V15.2333Z" fill="#484848"/>
<path d="M50.9655 4.31291C40.6206 11.8954 24.2509 12.6931 14.8575 8.90212L11.0971 13.7446C27.2442 36.4609 17.9656 59.315 5.16477 73.3129L11.0588 79.5522C8.66467 113.795 28.6486 133.595 63.7816 135.637L73.3053 143.587L82.8059 135.514C103.266 135.161 139.136 123.688 135.268 79.5063L141.192 73.3665C126.158 56.6899 120.978 33.8588 135.506 13.7441L131.976 8.93221C119.121 13.1532 104.417 10.8126 95.5685 4.4196C82.2845 13.9285 65.4241 14.9111 50.9655 4.31291ZM95.6763 10.8209C103.658 15.7783 112.475 17.1827 127.678 15.8554C120.065 29.0245 119.244 44.7185 125.982 59.8681L20.4824 59.8068C26.1538 46.269 27.4586 30.6904 18.5636 15.5561C29.5306 17.145 40.2436 16.7685 50.9189 10.9516C65.4088 19.4543 80.3122 19.6075 95.6763 10.8209ZM16.7379 80.0052H129.874C132.843 111.309 112.96 128.215 82.7146 129.881L63.49 129.934C34.5503 127.847 12.9929 112.575 16.7379 80.0052Z" fill="white"/>
<path d="M73.2982 144.239L63.5825 136.128C45.3023 135.038 30.8436 129.014 21.7725 118.699C13.2386 108.991 9.45525 95.8913 10.5451 79.7443L4.48197 73.3283L4.7889 72.9907C11.0971 66.0916 30.168 41.4566 10.683 14.0439L10.468 13.7446L14.689 8.31123L15.0342 8.44911C24.1666 12.1328 40.3903 11.45 50.6662 3.92118L50.9578 3.70616L51.2494 3.92118C64.9174 13.9361 81.3714 13.9744 95.2621 4.02075L95.5537 3.81339L95.8453 4.02075C104.955 10.6053 119.743 12.4321 131.807 8.46442L132.152 8.34953L136.112 13.7446L135.897 14.0362C122.851 32.0938 125.023 54.7028 141.554 73.0366L141.86 73.3819L135.767 79.6901C137.133 95.8142 133.358 108.953 124.54 118.737C110.611 134.201 89.4299 135.874 82.9755 136.012L73.2982 144.239ZM5.8328 73.3053L11.5655 79.3679L11.5502 79.5829C10.4373 95.5532 14.1211 108.492 22.5171 118.031C31.4345 128.169 45.717 134.086 63.8052 135.138L63.9666 135.145L73.291 142.934L82.6079 135.014H82.7846C88.9243 134.907 110.021 133.372 123.812 118.062C132.476 108.445 136.16 95.4837 134.763 79.544L134.74 79.3214L140.503 73.3507C124.011 54.8095 121.862 32.0396 134.878 13.7441L131.77 9.50777C119.613 13.3835 104.832 11.5491 95.5466 5.01814C81.4485 14.9565 64.8337 14.9182 50.9507 4.91857C40.521 12.3555 24.3587 13.0848 15.0035 9.493L11.6957 13.7523C30.9585 41.2186 12.5322 65.8536 5.8328 73.3053ZM63.49 130.426C46.1076 129.175 32.6699 123.365 24.5808 113.611C17.4667 105.031 14.6654 93.7116 16.2466 79.944L16.3002 79.5063H130.326L130.372 79.9593C131.708 94.0185 128.584 105.569 121.086 114.287C112.821 123.888 99.5668 129.451 82.7447 130.38L63.49 130.426ZM17.1751 80.496C15.7323 93.7805 18.4799 104.709 25.3331 112.974C33.2455 122.513 46.4452 128.2 63.513 129.428L82.6987 129.374C99.2139 128.469 112.23 123.02 120.311 113.627C127.547 105.215 130.61 94.0721 129.405 80.4889H17.1751V80.496ZM126.743 60.3589L19.7312 60.2976L20.0228 59.6071C26.5231 44.1052 25.8709 28.9555 18.1347 15.8018L17.6127 14.9116L18.6337 15.0577C31.5647 16.9382 41.4571 15.5337 50.682 10.5145L50.9277 10.3843L51.1657 10.5221C65.586 18.9871 80.4818 18.9411 95.4241 10.3843L95.6774 10.2382L95.9307 10.3919C103.789 15.2727 112.676 16.6619 127.626 15.3493L128.577 15.2651L128.101 16.094C120.427 29.3631 119.836 44.8345 126.428 59.6536L126.743 60.3589ZM21.2199 59.2997L125.223 59.3609C118.953 44.7644 119.506 29.5765 126.781 16.4228C112.315 17.6045 103.497 16.1695 95.6615 11.3959C80.5584 19.9451 65.5012 19.9911 50.9047 11.5184C41.7876 16.4146 32.0489 17.8573 19.4861 16.1842C26.7988 29.216 27.3974 44.0888 21.2199 59.2997Z" fill="white"/>
<path d="M126.665 60.5504L19.5621 60.4891L19.869 59.7598C26.3617 44.2731 25.7095 29.1312 17.981 15.9851L17.4207 15.0336L18.5106 15.195C31.434 17.0755 41.3111 15.671 50.536 10.6518L50.7969 10.5057L51.0579 10.6595C65.4706 19.1168 80.351 19.0785 95.2851 10.5292L95.5614 10.3755L95.83 10.5446C103.681 15.4177 112.56 16.8145 127.502 15.502L128.515 15.4101L128.009 16.2926C120.342 29.5541 119.751 45.0178 126.336 59.8216L126.665 60.5504ZM21.1427 59.4375L125.046 59.4988C118.799 44.9253 119.352 29.7686 126.596 16.6296C112.16 17.796 103.358 16.3686 95.5379 11.6027C80.4347 20.1442 65.3776 20.1902 50.7811 11.7252C41.6716 16.606 31.9483 18.0565 19.4314 16.3987C26.7069 29.4003 27.2978 44.2502 21.1427 59.4375Z" fill="#484848"/>
<path d="M63.49 130.456C46.1 129.206 32.6469 123.388 24.5502 113.627C17.436 105.047 14.6271 93.7116 16.2083 79.9363L16.2619 79.468H130.349L130.395 79.944C131.731 94.0185 128.607 105.576 121.094 114.295C112.821 123.903 99.5592 129.474 82.737 130.396L63.49 130.456ZM17.2062 80.5349C15.7712 93.7964 18.5188 104.701 25.3643 112.959C33.269 122.491 46.4611 128.178 63.5212 129.405L82.6992 129.359C99.1992 128.454 112.207 123.013 120.288 113.619C127.517 105.224 130.572 94.0957 129.382 80.5354L17.2062 80.5349Z" fill="#484848"/>
<path d="M73.2905 34.6264H73.0908V42.715H73.2905V34.6264Z" fill="#484848"/>
<path d="M88.7925 104.402C88.7925 112.897 81.9087 119.789 73.4207 119.789C64.9251 119.789 58.0336 112.905 58.0336 104.417V104.409C58.0336 95.9137 64.9174 89.0223 73.4054 89.0223C81.901 89.0223 88.7925 95.9061 88.7925 104.394C88.7925 104.394 88.7925 104.394 88.7925 104.402Z" fill="white"/>
<path d="M73.4131 120.311C69.1691 120.311 65.1708 118.661 62.1698 115.653C59.1612 112.652 57.504 108.653 57.504 104.402C57.504 100.142 59.1541 96.1441 62.1622 93.1355C65.1631 90.1269 69.1614 88.4697 73.4131 88.4697H73.4207C77.6724 88.4697 81.663 90.1198 84.6639 93.1278C87.6725 96.1288 89.3298 100.127 89.3298 104.379V104.386C89.3298 108.638 87.6796 112.629 84.6716 115.637C81.663 118.654 77.6647 120.311 73.4131 120.311ZM73.4131 89.5366C69.4377 89.5366 65.708 91.0865 62.9068 93.8878C60.1056 96.6967 58.5556 100.426 58.5633 104.394C58.5633 108.369 60.1132 112.099 62.9145 114.908C65.7157 117.709 69.4454 119.252 73.4131 119.252C73.4131 119.252 73.4131 119.252 73.4207 119.252C77.3884 119.252 81.1181 117.702 83.9193 114.9C86.7206 112.099 88.2629 108.362 88.2629 104.394V104.386C88.2629 100.419 86.7129 96.689 83.9117 93.8878C81.1028 91.0871 77.3731 89.5366 73.4131 89.5366Z" fill="#484848"/>
<path d="M68.7396 109.068C68.0103 109.068 67.2739 108.845 66.5369 108.408C60.9191 105.054 62.3006 98.0404 64.0273 91.7316L65.0482 92.0079C62.9686 99.5827 62.5845 104.809 67.0818 107.495C67.9567 108.016 68.7779 108.139 69.5915 107.863C71.6787 107.157 72.93 104.141 73.0678 103.795L74.0499 104.187C73.7966 104.816 72.4228 108.016 69.9367 108.86C69.5373 108.999 69.1385 109.068 68.7396 109.068Z" fill="#484848"/>
<path d="M59.2001 111.132L59.1541 110.081C62.009 109.951 63.4594 109.766 65.2939 106.973L66.1764 107.556C64.0656 110.756 62.247 110.987 59.2001 111.132Z" fill="#484848"/>
<path d="M86.4902 111.393C86.099 110.166 85.0551 109.007 83.8274 108.431C83.0981 108.086 81.9393 107.787 80.6273 108.316L80.0747 108.539L79.921 107.963C79.3378 105.791 78.4017 104.395 77.2117 103.919C76.2137 103.52 75.0396 103.742 73.7047 104.564L73.1521 103.666C74.7639 102.676 76.3062 102.423 77.6034 102.944C79.0232 103.512 80.0977 104.924 80.7882 107.158C81.947 106.843 83.1364 106.95 84.2799 107.48C85.7762 108.186 87.0122 109.559 87.4953 111.079L86.4902 111.393Z" fill="#484848"/>
<path d="M64.0886 117.118L63.9813 116.067C72.7762 115.192 78.0176 112.429 80.0053 107.625L80.9797 108.031C78.8311 113.227 73.3058 116.197 64.0886 117.118Z" fill="#484848"/>
<path d="M73.0755 104.724L72.7073 104.395C70.858 102.744 68.3484 100.496 72.2083 95.6303C70.2819 92.9981 70.4127 90.6729 72.5918 88.7159L73.2976 89.4988C71.4402 91.1642 71.4402 92.9598 73.2976 95.3157L73.5663 95.6533L73.29 95.9832C69.7058 100.288 71.5939 101.977 73.4125 103.612L73.7884 103.957L73.0755 104.724Z" fill="#484848"/>
<path d="M88.2629 105.576C85.9606 101.509 79.8209 94.2872 73.006 96.0833L72.7374 95.0624C80.1661 93.113 86.743 100.749 89.176 105.054L88.2629 105.576Z" fill="#484848"/>
<path d="M51.9098 62.6075V62.6611H49.1162V77.1964H52.1325V71.1644H56.4377V68.0869H52.1325V65.731H59.5689V62.6075H51.9098Z" fill="#484848"/>
<path d="M74.7639 67.1584L77.4732 65.7463C75.7465 61.9247 68.7319 60.8349 66.422 65.7463C64.0432 71.6098 66.5758 77.0508 71.1803 77.5804C74.1117 78.0105 76.4293 76.5748 77.4119 74.0275L74.7338 72.4928C74.0198 74.2731 71.2957 75.4937 69.2238 72.5234C68.587 71.1956 68.4179 69.1543 69.1319 67.1666C70.8345 64.8173 73.3212 65.0706 74.7639 67.1584Z" fill="#484848"/>
<path d="M85.1241 62.6458L85.1777 77.3118L93.159 77.2812C95.7529 76.9206 99.1603 72.669 95.1697 69.3611C97.2799 67.5037 97.0113 63.5289 92.7908 62.677L85.1241 62.6458ZM88.1939 65.5313H92.1693C93.9189 66.0379 93.397 67.7187 92.2229 68.0026H88.1939V65.5313ZM88.2246 70.8651L92.4073 70.9188C94.4792 71.5326 94.0114 73.8885 92.4685 74.2955L88.2552 74.2649L88.2246 70.8651Z" fill="#484848"/>
</svg>
