<svg width="221" height="130" viewBox="0 0 221 130" fill="none" xmlns="http://www.w3.org/2000/svg">
<path d="M18.8721 117.536C8.9291 117.536 0.911133 109.563 0.911133 99.6759V17.8603C0.911133 7.96878 8.9291 0 18.8721 0H202.95C212.897 0 220.911 7.97305 220.911 17.8603V99.7315C220.911 109.623 212.893 117.592 202.95 117.592H18.8721V117.536Z" fill="white"/>
<path d="M211.449 9.41298C209.219 7.1954 206.147 5.93492 203.01 5.93492H151.534L181.126 55.0807L183.838 55.4396L185.406 57.6572V59.815L187.335 60.1739L189.024 62.5111V64.5535L190.953 64.9124L192.883 67.0702V71.6848C192.883 71.6848 197.042 75.5218 200.78 76.9574C203.371 77.9744 203.732 82.1104 205.18 84.3878C207.23 87.5027 209.941 88.8828 209.34 90.6817C208.012 95.4758 203.01 103.568 198.43 104.047C198.43 104.047 186.919 104.047 180.168 104.047V111.841H203.01C209.64 111.841 215.003 106.508 215.003 99.9152V17.8603C214.943 14.6856 213.68 11.6306 211.449 9.41298Z" fill="#484848"/>
<path d="M133.934 5.93492H18.8721C15.6795 5.93492 12.6631 7.1954 10.433 9.41298C8.20293 11.6306 6.93535 14.6856 6.93535 17.8048V99.6759C6.93535 102.851 8.20293 105.85 10.433 108.128C12.6631 110.345 15.7354 111.606 18.8721 111.606H93.6119C91.7428 108.491 89.633 104.953 88.9713 103.872H80.051C80.051 81.8754 87.5834 69.6467 96.5037 67.3095C97.7713 67.0702 97.1654 61.0156 95.6014 59.2168C95.6014 59.2168 91.3217 59.3364 90.4193 59.0971C89.2721 58.7382 90.0584 57.6572 90.0584 57.6572L94.2178 48.6672L93.6764 46.2104H78.2463C78.0057 46.2104 90.965 37.34 90.965 37.34C91.6268 14.0233 115.676 12.2288 130.204 21.8169C138.763 27.5126 139.485 38.7201 138.763 46.5693C138.643 46.988 136.533 46.6889 136.533 46.6889C136.533 46.6889 135.085 55.2003 138.884 55.2003H155.822C162.693 54.9611 169.383 59.5757 169.383 59.5757L171.072 53.7604L133.934 5.93492ZM31.651 94.7622C27.1307 94.822 23.3924 91.2243 23.3322 86.7293C23.2721 82.2343 26.89 78.517 31.4104 78.4572H31.651C36.1713 78.517 39.8494 82.2343 39.7291 86.7293C39.6689 91.1047 36.1111 94.7024 31.651 94.7622Z" fill="#484848"/>
<path d="M211.69 124.907H209.821V130H208.553V124.907H206.684V123.83H211.686L211.69 124.907ZM220.189 129.944H218.922V125.031L217.113 129.944H215.905L214.156 125.031V129.944H212.889V123.77H215.059L216.507 127.787L218.015 123.77H220.185V129.944H220.189Z" fill="white"/>
</svg>
